HIERARCHY
ROOT root
{
	OFFSET	0	13.1	24.9
	CHANNELS 6  Xposition Yposition Zposition Xrotation Yrotation Zrotation
	JOINT spine_1
	{
		OFFSET	0	9.99999	0
		CHANNELS 3  Xrotation Yrotation Zrotation
		JOINT spine_2
		{
			OFFSET	0	112	-10
			CHANNELS 3  Xrotation Yrotation Zrotation
			JOINT spine_3
			{
				OFFSET	0	206.5	19.3
				CHANNELS 3  Xrotation Yrotation Zrotation
				JOINT spine_4
				{
					OFFSET	0	110.4	14.6
					CHANNELS 3  Xrotation Yrotation Zrotation
					JOINT neck_1
					{
						OFFSET	0	71.8	-50.3
						CHANNELS 3  Xrotation Yrotation Zrotation
						JOINT neck_2
						{
							OFFSET	0	86.2	-25.8
							CHANNELS 3  Xrotation Yrotation Zrotation
							JOINT head_ee
							{
								OFFSET	0	179.8	-8.7
								CHANNELS 3  Xrotation Yrotation Zrotation
								End Site
								{
									OFFSET	1	0	0
								}
							}
						}
					}
					JOINT left_clavicle
					{
						OFFSET	-43.2	22.4	-70.8
						CHANNELS 3  Xrotation Yrotation Zrotation
						JOINT left_shoulder
						{
							OFFSET	-93.9	-5.79999	48.7
							CHANNELS 3  Xrotation Yrotation Zrotation
							JOINT left_elbow
							{
								OFFSET	-291.4	-30.8	15.2
								CHANNELS 3  Xrotation Yrotation Zrotation
								JOINT left_lowarm_twist
								{
									OFFSET	-110.7	-3.89999	13.6
									CHANNELS 3  Xrotation Yrotation Zrotation
									JOINT left_hand
									{
										OFFSET	-110.7	-3.89999	13.6
										CHANNELS 3  Xrotation Yrotation Zrotation
										JOINT left_ee
										{
											OFFSET	-80.8	-5.10001	12.1
											CHANNELS 3  Xrotation Yrotation Zrotation
											End Site
											{
												OFFSET	1	0	0
											}
										}
									}
								}
							}
						}
					}
					JOINT right_clavicle
					{
						OFFSET	43.2	22.4	-70.8
						CHANNELS 3  Xrotation Yrotation Zrotation
						JOINT right_shoulder
						{
							OFFSET	93.9	-5.79999	48.7
							CHANNELS 3  Xrotation Yrotation Zrotation
							JOINT right_elbow
							{
								OFFSET	291.4	-30.8	15.2
								CHANNELS 3  Xrotation Yrotation Zrotation
								JOINT right_lowarm_twist
								{
									OFFSET	110.7	-3.89999	13.6
									CHANNELS 3  Xrotation Yrotation Zrotation
									JOINT right_hand
									{
										OFFSET	110.7	-3.89999	13.6
										CHANNELS 3  Xrotation Yrotation Zrotation
										JOINT right_ee
										{
											OFFSET	80.8	-5.10001	12.1
											CHANNELS 3  Xrotation Yrotation Zrotation
											End Site
											{
												OFFSET	1	0	0
											}
										}
									}
								}
							}
						}
					}
				}
			}
		}
	}
	JOINT left_hip
	{
		OFFSET	-82.8	-127.5	0.300001
		CHANNELS 3  Xrotation Yrotation Zrotation
		JOINT left_knee
		{
			OFFSET	-28.2	-396.7	2.2
			CHANNELS 3  Xrotation Yrotation Zrotation
			JOINT left_ankle
			{
				OFFSET	-11.7	-411.3	35.4
				CHANNELS 3  Xrotation Yrotation Zrotation
				JOINT left_toes
				{
					OFFSET	0	-60	-88.6
					CHANNELS 3  Xrotation Yrotation Zrotation
					JOINT left_foot_ee
					{
						OFFSET	-22.5	-16.5	-42.2
						CHANNELS 3  Xrotation Yrotation Zrotation
						End Site
						{
							OFFSET	1	0	0
						}
					}
				}
			}
		}
	}
	JOINT right_hip
	{
		OFFSET	82.8	-127.5	0.300001
		CHANNELS 3  Xrotation Yrotation Zrotation
		JOINT right_knee
		{
			OFFSET	28.2	-396.7	2.2
			CHANNELS 3  Xrotation Yrotation Zrotation
			JOINT right_ankle
			{
				OFFSET	11.7	-411.3	35.4
				CHANNELS 3  Xrotation Yrotation Zrotation
				JOINT right_toes
				{
					OFFSET	0	-60	-88.6
					CHANNELS 3  Xrotation Yrotation Zrotation
					JOINT right_foot_ee
					{
						OFFSET	22.5	-16.5	-42.2
						CHANNELS 3  Xrotation Yrotation Zrotation
						End Site
						{
							OFFSET	1	0	0
						}
					}
				}
			}
		}
	}
}
MOTION
Frames: 16
Frame Time: 0.02
469.646 738.353 -538.489 177.602 -58.3431 177.782 -0.0957756 0.106264 0.977472 -0.0952451 0.0438529 0.982252 -0.0942212 -0.16518 0.969258 -0.0955319 -0.010039 0.983179 -11.5925 12.1139 8.58506 -11.536 17.3893 11.569 -0.0 0.0 -0.0 0.975234 17.5083 3.54889 -13.4544 -16.2893 65.0647 1.36953 -34.1521 0.420715 -82.1492 -8.09381 5.24565 -0.61083 10.7488 0.546906 -0.0 0.0 -0.0 8.84644 27.9213 -16.0857 -24.7772 34.8867 -62.4953 0.518588 14.4075 -0.065548 31.8559 -0.00527525 4.0174 2.27251 -10.8068 -19.3634 0.0 0.0 0.0 -16.8361 20.0119 6.7341 7.2022 -0.362828 -1.04449 20.2236 27.8079 -2.94812 -28.433 0.0 0.0 -0.0 0.0 -0.0 4.7366 34.1117 -2.79913 -17.1209 -0.318803 -2.59827 16.0409 5.79633 2.28913 0.503141 -0.0 -0.0 0.0 0.0 0.0 
473.748 735.335 -536.416 177.418 -57.9355 177.786 0.0153475 0.0159091 1.0173 0.0159222 -0.0488532 1.01625 0.0152842 -0.26112 0.983351 0.0139489 -0.102549 1.01224 -11.7879 12.4713 9.2783 -11.7064 17.6633 12.3533 -0.0 0.0 -0.0 1.26775 17.4985 3.99762 -13.6603 -15.8866 64.264 1.27589 -32.2931 0.369404 -81.9432 -8.0678 5.24936 -0.48665 10.9103 1.40659 -0.0 0.0 -0.0 8.95197 27.808 -16.3322 -25.4916 35.0815 -62.2913 0.519259 14.4254 -0.0657149 31.3517 -0.0226015 3.95535 2.27141 -10.8015 -19.3541 0.0 0.0 0.0 -17.3942 20.0076 6.6837 7.46031 -0.378256 -1.08103 22.8391 27.4178 -3.28459 -28.1935 0.0 0.0 -0.0 0.0 -0.0 4.91432 34.2146 -3.06636 -16.9464 -0.319494 -2.5715 17.1112 5.38827 2.42607 1.16677 -0.0 -0.0 0.0 0.0 0.0 
476.757 738.26 -536.801 177.782 -57.6254 178.235 0.0264203 0.162069 0.904891 0.0268699 0.104162 0.913369 0.0287777 -0.0896765 0.914905 0.0276137 0.0559349 0.917586 -13.0048 12.3272 7.80217 -13.0564 18.5934 11.1177 -0.0 0.0 -0.0 1.64498 18.3871 4.63909 -13.8728 -15.6318 64.0131 1.29503 -32.6795 0.379683 -82.6141 -8.15243 5.23692 -0.36407 10.5397 2.03306 -0.0 0.0 -0.0 9.02614 27.6498 -16.5144 -26.4531 34.7863 -61.5834 0.513848 14.2813 -0.0643736 31.0916 -0.0313271 3.92328 2.30155 -10.4021 -19.4241 0.0 0.0 0.0 -17.3524 20.0371 6.68025 7.36509 -0.372546 -1.06756 21.7319 27.5502 -3.14294 -28.1713 0.0 0.0 -0.0 0.0 -0.0 5.06715 34.7258 -3.02296 -16.1279 -0.321648 -2.44593 15.7305 4.39085 2.2357 1.51514 -0.0 -0.0 0.0 0.0 0.0 
487.194 737.89 -539.12 177.158 -57.7364 177.307 0.131841 -0.0416942 1.06235 0.132462 -0.109206 1.05754 0.130644 -0.326771 1.01171 0.129253 -0.162899 1.05061 -15.146 11.7488 8.40369 -15.2114 17.5409 11.8456 -0.0 0.0 -0.0 1.84698 19.1869 4.99501 -13.6526 -14.5101 64.2001 1.2201 -31.1476 0.340068 -83.0691 -8.20973 5.22791 -0.510154 11.7508 1.61107 -0.0 0.0 -0.0 8.9462 27.2805 -16.3786 -27.3314 34.2959 -61.5778 0.525462 14.5904 -0.0672691 30.8998 -0.0376692 3.8996 2.21117 -10.0427 -18.685 0.0 0.0 0.0 -18.091 19.893 7.43591 6.6195 -0.328607 -0.961725 20.3354 27.8355 -2.96362 -29.1614 0.0 0.0 -0.0 0.0 -0.0 3.76501 35.1358 -2.06142 -17.9262 -0.314557 -2.72175 16.2583 4.51847 2.30641 3.03825 -0.0 -0.0 0.0 0.0 0.0 
489.416 735.376 -537.981 176.088 -56.928 176.274 0.12536 0.0222792 1.02981 0.125949 -0.0432917 1.02914 0.125393 -0.256471 0.997611 0.124016 -0.0957065 1.02559 -16.7018 11.495 8.19562 -16.8261 17.465 11.8299 -0.0 0.0 -0.0 2.21167 19.5916 5.56107 -13.9545 -14.684 63.0527 1.20248 -30.78 0.331005 -83.4461 -8.25714 5.2201 -0.567147 12.5592 1.59148 -0.0 0.0 -0.0 9.18087 27.5383 -16.87 -28.1854 34.1413 -61.0795 0.531487 14.7505 -0.0687949 30.7674 -0.0420013 3.88323 2.16967 -9.47416 -18.2056 0.0 0.0 0.0 -18.1935 20.1205 6.65644 6.42927 -0.317618 -0.934633 19.2439 28.0035 -2.81999 -29.6005 0.0 0.0 -0.0 0.0 -0.0 2.86136 34.9068 -1.48165 -17.5195 -0.316918 -2.65939 16.2525 4.77903 2.30788 3.81194 -0.0 -0.0 0.0 0.0 0.0 
493.933 736.019 -533.834 175.648 -55.5219 175.597 0.140721 0.470512 0.958843 0.141139 0.408548 0.986836 0.148552 0.194781 1.05015 0.147192 0.358179 1.00621 -17.9173 11.9009 9.10235 -18.0574 17.9734 13.0373 -0.0 0.0 -0.0 2.07503 20.6092 5.4131 -14.194 -14.1434 62.7029 1.28198 -32.4164 0.372663 -83.9125 -8.31572 5.21 -0.760511 13.1305 0.618433 -0.0 0.0 -0.0 9.40027 27.5279 -17.3584 -28.4883 33.443 -61.1018 0.480328 13.3843 -0.0563592 30.8525 -0.0392198 3.89376 2.11816 -8.68403 -17.5774 0.0 0.0 0.0 -18.3154 20.1235 6.64041 6.13554 -0.300828 -0.892733 18.8735 27.6145 -2.76272 -30.0884 0.0 0.0 -0.0 0.0 -0.0 2.15183 32.7775 -0.899945 -17.8862 -0.314809 -2.71562 16.1462 8.87911 2.33591 4.62024 -0.0 -0.0 0.0 0.0 0.0 
501.386 734.615 -535.468 175.719 -55.4057 176.009 0.18404 0.677536 0.787337 0.184166 0.626064 0.828853 0.193533 0.441122 0.940402 0.192775 0.5841 0.858941 -18.6254 10.9096 7.32878 -18.8409 17.1296 11.1473 -0.0 0.0 -0.0 2.21229 21.1703 5.64042 -14.3993 -14.0078 63.0727 1.26569 -32.0858 0.36397 -84.0495 -8.3329 5.20694 -0.948886 13.6063 -0.355684 -0.0 0.0 -0.0 9.43828 26.8043 -17.5237 -28.7935 33.5917 -60.8701 0.417475 11.6845 -0.0427169 30.6237 -0.0466572 3.86548 1.9474 -8.97881 -16.5242 0.0 0.0 0.0 -18.4688 20.2308 6.61144 5.77598 -0.280569 -0.841327 19.2409 28.1555 -2.82242 -30.2188 0.0 0.0 -0.0 0.0 -0.0 1.75823 32.8106 -0.766424 -18.1529 -0.313049 -2.7565 17.152 6.62977 2.44392 4.90284 -0.0 -0.0 0.0 0.0 0.0 
507.564 730.258 -532.255 175.14 -54.7397 175.589 0.22772 0.755465 0.623002 0.227652 0.714292 0.669811 0.236212 0.560932 0.802628 0.23596 0.68065 0.703971 -18.4972 11.7511 8.42713 -18.7028 18.1517 12.4728 -0.0 0.0 -0.0 2.07587 23.5003 5.56093 -14.6253 -13.6271 63.0829 1.33369 -33.4499 0.400776 -84.8427 -8.43226 5.18842 -1.42311 15.1836 -2.60027 -0.0 0.0 -0.0 9.93966 26.0618 -18.7223 -28.9458 33.3103 -60.2708 0.340814 9.58305 -0.0285683 30.5923 -0.0476693 3.86159 1.86741 -8.7539 -15.9042 0.0 0.0 0.0 -17.6358 20.4465 6.00944 4.26683 -0.199077 -0.624242 18.2512 28.2909 -2.69004 -31.5648 0.0 0.0 -0.0 0.0 -0.0 1.31894 30.9369 -0.533418 -18.8809 -0.307276 -2.86805 18.6475 9.36067 2.67267 5.43456 -0.0 -0.0 0.0 0.0 0.0 
514.378 725.637 -530.649 174.449 -54.1169 174.814 0.210622 0.650422 0.599687 0.210614 0.610945 0.639859 0.217627 0.46572 0.75218 0.217305 0.578666 0.669192 -21.9109 11.5038 7.75118 -22.3083 18.5453 12.4363 -0.0 0.0 -0.0 2.00988 25.182 5.5524 -15.6061 -12.2745 63.0089 1.52566 -37.0783 0.511664 -84.9031 -8.43981 5.18695 -1.75003 15.9373 -4.26794 -0.0 0.0 -0.0 10.067 26.9449 -18.9101 -28.7518 33.4209 -60.0914 0.286356 8.07387 -0.0202095 30.5607 -0.0486859 3.85768 1.7039 -9.16725 -14.9551 0.0 0.0 0.0 -17.4901 20.4805 5.56304 1.43161 -0.0615941 -0.211042 19.259 28.0518 -2.82293 -31.2045 0.0 0.0 -0.0 0.0 -0.0 1.09475 27.7853 0.410004 -20.1421 -0.293922 -3.0611 20.5075 15.7715 3.03028 5.47076 -0.0 -0.0 0.0 0.0 0.0 
517.61 722.789 -529.847 174.262 -54.0725 174.293 0.153561 0.722977 0.762853 0.153632 0.672971 0.80731 0.163417 0.490987 0.929281 0.162769 0.631583 0.840084 -20.5079 12.167 9.46087 -20.7702 18.7822 13.9943 -0.0 0.0 -0.0 2.16389 25.1278 5.75397 -16.4225 -9.35193 63.1438 1.73185 -40.6231 0.641071 -84.7527 -8.421 5.19059 -2.26393 18.5298 -6.13952 -0.0 0.0 -0.0 10.8905 27.7875 -20.6589 -29.0071 32.3564 -59.5433 0.22729 6.4242 -0.0127557 30.3675 -0.0548502 3.83378 1.66123 -9.06745 -14.6337 0.0 0.0 0.0 -17.0098 19.2926 4.18229 1.25554 -0.0537345 -0.185169 15.668 22.4512 -2.25628 -36.6766 0.0 0.0 -0.0 0.0 -0.0 -0.102809 28.2199 1.09852 -20.2942 -0.292025 -3.08435 22.5531 16.8045 3.32087 5.58696 -0.0 -0.0 0.0 0.0 0.0 
522.835 717.02 -530.296 174.163 -54.4473 173.316 0.112227 0.746787 0.730576 0.112252 0.698787 0.776614 0.12201 0.521953 0.904981 0.121472 0.658323 0.811198 -20.9573 12.6061 9.60298 -21.2837 19.6424 14.423 -0.0 0.0 -0.0 2.33966 24.274 5.95432 -18.9838 -9.01667 63.1531 1.83011 -42.1908 0.706062 -85.1174 -8.4666 5.18168 -2.81416 19.1669 -9.14188 -0.0 0.0 -0.0 11.2374 28.4265 -21.3615 -29.5338 31.5654 -58.6002 0.214903 6.07677 -0.0114069 31.0399 -0.0330446 3.91689 1.73221 -11.931 -16.1185 0.0 0.0 0.0 -15.1417 18.7734 4.01433 -2.74563 0.10327 0.408669 20.4918 19.1638 -2.85453 -37.5871 0.0 0.0 -0.0 0.0 -0.0 -1.64256 28.0833 2.55112 -21.1586 -0.280069 -3.21645 23.3218 15.9675 3.39783 7.21678 -0.0 -0.0 0.0 0.0 0.0 
531.837 710.326 -530.035 172.071 -55.4863 170.488 -0.138622 0.848371 0.833968 -0.138585 0.793586 0.88626 -0.125908 0.587424 1.03448 -0.126631 0.743422 0.928739 -23.6731 11.7366 10.8137 -23.9249 17.8908 15.6884 -0.0 0.0 -0.0 1.63903 24.3489 5.0127 -19.6289 -9.33304 64.2617 2.04508 -45.3667 0.85485 -84.7326 -8.41848 5.19107 -2.4427 16.8289 -8.09864 -0.0 0.0 -0.0 11.119 28.7887 -21.0493 -26.8221 30.5172 -59.1162 0.189933 5.37511 -0.00891563 29.9558 -0.0677193 3.78277 1.52917 -17.6606 -16.7038 0.0 0.0 0.0 -10.9772 19.0944 2.46464 -12.6013 0.310414 1.90505 22.4421 13.2489 -3.04742 -40.0919 0.0 0.0 -0.0 0.0 -0.0 -6.12089 27.4688 4.23313 -18.0628 -0.313665 -2.74269 27.0216 10.647 3.72525 4.22419 -0.0 -0.0 0.0 0.0 0.0 
542.134 705.116 -530.671 170.198 -55.8214 167.014 -0.531965 0.562318 1.12598 -0.531392 0.489534 1.15947 -0.520813 0.22373 1.23853 -0.522712 0.416511 1.18766 -25.5809 12.1903 11.682 -25.9207 18.7486 17.1569 -0.0 0.0 -0.0 2.08361 22.9755 5.5461 -20.7988 -7.84753 64.9804 2.00907 -44.858 0.829339 -78.8715 -7.6785 5.29352 -2.6633 18.977 -8.32803 -0.0 0.0 -0.0 11.1953 28.397 -21.2705 -27.1587 31.6127 -57.2415 0.193922 5.48732 -0.00929323 28.9725 -0.0969676 3.66057 2.02196 -22.7626 -21.3328 0.0 0.0 0.0 -5.8925 20.3733 1.11324 -26.9247 0.149519 4.09131 26.7456 9.20649 -3.53435 -38.6413 0.0 0.0 -0.0 0.0 -0.0 -6.63604 34.3592 4.3313 -24.6071 -0.212576 -3.74125 28.9206 4.65415 3.84056 3.85893 -0.0 -0.0 0.0 0.0 0.0 
548.625 699.26 -530.935 168.227 -55.6799 164.393 -0.9725 0.841877 1.24196 -0.971964 0.761149 1.29301 -0.953762 0.448792 1.43169 -0.955997 0.669249 1.34287 -27.0833 12.0791 11.1299 -27.5546 19.0005 16.9729 -0.0 0.0 -0.0 1.96429 22.7863 5.37048 -21.479 -8.97532 65.2885 2.04915 -45.4237 0.857752 -80.8171 -7.92541 5.26799 -2.92927 17.5212 -10.7402 -0.0 0.0 -0.0 11.2003 28.4036 -21.2809 -24.5893 32.4026 -56.9444 0.191631 5.42287 -0.00907543 29.4871 -0.0819221 3.72458 1.61134 -24.6908 -19.312 0.0 0.0 0.0 -3.40683 19.6006 0.997473 -37.096 -0.292427 5.58743 27.0303 5.91217 -3.56259 -38.5277 0.0 0.0 -0.0 0.0 -0.0 -8.32086 34.5269 5.68362 -25.9904 -0.176642 -3.9505 31.114 2.75404 4.05307 5.29964 -0.0 -0.0 0.0 0.0 0.0 
543.252 689.97 -528.96 167.293 -56.0582 162.745 -1.28761 0.874564 1.52362 -1.28665 0.775852 1.57617 -1.26371 0.389798 1.71295 -1.2672 0.655399 1.62993 -27.5357 12.0791 11.6173 -27.9856 18.8933 17.527 -0.0 0.0 -0.0 1.90157 20.6359 5.16217 -22.2684 -9.25804 65.7693 2.16984 -47.0607 0.944934 -78.4064 -7.61933 5.29836 -3.03133 19.6225 -10.2109 -0.0 0.0 -0.0 11.5613 28.8534 -22.0378 -20.7902 33.4434 -56.213 0.176926 5.00896 -0.00773864 28.1519 -0.119767 3.55823 1.69427 -29.4498 -21.0225 0.0 0.0 0.0 4.1952 25.4215 -3.68383 -49.5358 -1.18198 7.27737 29.3668 5.36943 -3.82039 -40.2991 0.0 0.0 -0.0 0.0 -0.0 -9.58321 37.8954 5.75089 -26.505 -0.161988 -4.0281 35.7056 -0.0872732 4.4862 5.10173 -0.0 -0.0 0.0 0.0 0.0 
549.59 678.918 -528.666 165.723 -59.189 159.86 -1.54808 0.816096 1.83102 -1.54649 0.697952 1.87922 -1.52128 0.234862 1.9908 -1.5264 0.546266 1.92876 -26.288 11.9842 11.4785 -26.6585 18.5552 17.0329 -0.0 0.0 -0.0 1.69791 18.6183 4.73471 -22.2729 -10.4527 65.8426 2.16545 -47.0028 0.941717 -75.1531 -7.20443 5.3187 -3.45258 19.4487 -12.8827 -0.0 0.0 -0.0 11.0928 28.8385 -20.9839 -17.7801 32.5706 -57.6334 0.175122 4.95814 -0.00758195 26.7532 -0.15524 3.38308 2.04346 -29.7621 -23.1417 0.0 0.0 0.0 6.83078 22.6062 -4.64207 -56.5849 -1.84272 8.13856 33.8042 -5.1518 -4.35843 -40.2993 0.0 0.0 -0.0 0.0 -0.0 -10.6994 40.6278 6.37308 -29.6945 -0.0556465 -4.50599 39.9269 -0.623112 4.86538 2.69441 -0.0 -0.0 0.0 0.0 0.0 
